<svg width="67" height="42" viewBox="0 0 67 42" fill="none" xmlns="http://www.w3.org/2000/svg">
<path d="M7.27939 17.2653C6.03005 17.2653 5.11239 16.9502 4.52642 16.32C3.94045 15.6899 3.64746 14.645 3.64746 13.1856C3.64746 12.0248 3.84094 10.7754 4.22791 9.43762C4.62593 8.09983 5.25612 6.95553 6.1185 6.0047C6.99193 5.04282 8.09754 4.56188 9.43533 4.56188C10.2645 4.56188 10.9334 4.74431 11.442 5.10916C11.9506 5.47401 12.2049 6.03234 12.2049 6.78416C12.2049 7.25957 12.1109 7.63548 11.923 7.91188C11.735 8.17723 11.442 8.3099 11.044 8.3099C10.646 8.3099 10.3309 8.16617 10.0987 7.87871C10.2977 7.77921 10.4746 7.5802 10.6294 7.28168C10.7842 6.98317 10.8616 6.6736 10.8616 6.35297C10.8616 6.05445 10.7786 5.81122 10.6128 5.62327C10.458 5.43531 10.2037 5.34134 9.84994 5.34134C9.26396 5.34134 8.70563 5.74488 8.17494 6.55198C7.64424 7.34802 7.21305 8.35412 6.88137 9.5703C6.56074 10.7865 6.40043 11.9584 6.40043 13.0861C6.40043 13.9264 6.54416 14.5677 6.83162 15.0099C7.11908 15.4521 7.63871 15.6733 8.39053 15.6733C9.04284 15.6733 9.6454 15.5295 10.1982 15.2421C10.751 14.9546 11.2264 14.5455 11.6244 14.0149L12.0059 14.1807C11.7295 14.8772 11.3204 15.4577 10.7786 15.922C10.2369 16.3864 9.65645 16.7291 9.03731 16.9502C8.41817 17.1603 7.8322 17.2653 7.27939 17.2653ZM13.566 17.0995C12.9358 17.0995 12.4106 16.8839 11.9905 16.4527C11.5703 16.0215 11.3603 15.3471 11.3603 14.4295C11.3603 13.6113 11.5206 12.7545 11.8412 11.8589C12.1729 10.9523 12.6594 10.1894 13.3006 9.5703C13.9529 8.9401 14.7268 8.625 15.6224 8.625C16.0757 8.625 16.4129 8.70239 16.634 8.85718C16.8551 9.01196 16.9657 9.2165 16.9657 9.47079V9.58688L17.1481 8.70792H19.5363L18.3422 14.3465C18.298 14.5124 18.2759 14.6893 18.2759 14.8772C18.2759 15.3526 18.5025 15.5903 18.9558 15.5903C19.2654 15.5903 19.5307 15.4466 19.7518 15.1592C19.984 14.8717 20.1664 14.4958 20.2991 14.0314H20.9957C20.5866 15.2255 20.078 16.0381 19.4699 16.4693C18.8729 16.8894 18.2703 17.0995 17.6622 17.0995C17.1979 17.0995 16.822 16.9724 16.5345 16.7181C16.2581 16.4527 16.0923 16.0713 16.037 15.5738C15.7164 16.0271 15.357 16.3974 14.959 16.6849C14.5721 16.9613 14.1077 17.0995 13.566 17.0995ZM14.6439 15.4908C14.9203 15.4908 15.1912 15.3637 15.4565 15.1094C15.733 14.8441 15.9209 14.4847 16.0204 14.0314L16.8164 10.2834C16.8164 10.1397 16.7612 10.0015 16.6506 9.86881C16.54 9.72508 16.3687 9.65322 16.1365 9.65322C15.6943 9.65322 15.2962 9.91304 14.9424 10.4327C14.5886 10.9413 14.3122 11.5604 14.1132 12.2901C13.9142 13.0087 13.8147 13.6445 13.8147 14.1973C13.8147 14.7501 13.8921 15.1039 14.0469 15.2587C14.2127 15.4134 14.4117 15.4908 14.6439 15.4908ZM18.8126 21.146C18.293 21.146 17.8397 20.9747 17.4527 20.6319C17.0547 20.3002 16.8557 19.8746 16.8557 19.355C16.8557 18.8795 16.9773 18.487 17.2206 18.1775C17.4638 17.8679 17.7789 17.6191 18.1659 17.4312C18.5528 17.2543 19.0669 17.0663 19.7082 16.8673L21.7149 7.39777C21.936 6.33638 22.323 5.60115 22.8758 5.19208C23.4396 4.783 24.0588 4.57846 24.7332 4.57846C25.2528 4.57846 25.7061 4.74983 26.0931 5.09257C26.4911 5.42426 26.6901 5.84992 26.6901 6.36955C26.6901 6.62384 26.6735 6.85049 26.6404 7.0495H25.8609C25.883 6.80627 25.8941 6.65701 25.8941 6.60173C25.8941 6.42483 25.8333 6.28663 25.7116 6.18713C25.59 6.08762 25.4408 6.03787 25.2639 6.03787C25.0317 6.03787 24.805 6.1429 24.5839 6.35297C24.3628 6.55198 24.2025 6.90025 24.103 7.39777L23.8211 8.70792H25.0317L24.9156 9.37129H23.6884L21.7812 18.3267C21.5601 19.3992 21.1786 20.1344 20.6369 20.5324C20.0951 20.9415 19.4871 21.146 18.8126 21.146ZM18.4312 19.67C18.8734 19.67 19.1885 19.2389 19.3765 18.3765L19.5921 17.4146C19.0061 17.6136 18.5583 17.8403 18.2488 18.0946C17.9281 18.3599 17.7678 18.7026 17.7678 19.1228C17.7678 19.2554 17.8342 19.3771 17.9668 19.4876C18.0995 19.6092 18.2543 19.67 18.4312 19.67ZM27.0981 17.0995C26.28 17.0995 25.6442 16.8894 25.1909 16.4693C24.7376 16.0381 24.511 15.3692 24.511 14.4626C24.511 13.6998 24.6602 12.8595 24.9588 11.9418C25.2573 11.0242 25.7437 10.2337 26.4182 9.5703C27.0926 8.89587 27.9494 8.55866 28.9887 8.55866C30.2049 8.55866 30.813 9.08936 30.813 10.1507C30.813 10.7699 30.6361 11.3393 30.2823 11.8589C29.9285 12.3785 29.4586 12.7987 28.8726 13.1193C28.2866 13.4289 27.662 13.6058 26.9986 13.65C26.9765 13.9817 26.9654 14.2028 26.9654 14.3134C26.9654 14.8551 27.0594 15.2255 27.2474 15.4245C27.4353 15.6125 27.7394 15.7064 28.1595 15.7064C28.7565 15.7064 29.2651 15.5682 29.6852 15.2918C30.1164 15.0154 30.5863 14.5953 31.0949 14.0314H31.6588C30.4315 16.0768 28.9113 17.0995 27.0981 17.0995ZM27.1313 12.854C27.5404 12.8318 27.9273 12.6881 28.2922 12.4228C28.6681 12.1574 28.9666 11.8202 29.1877 11.4111C29.4199 11.0021 29.536 10.5709 29.536 10.1176C29.536 9.66427 29.3978 9.43762 29.1214 9.43762C28.7234 9.43762 28.3309 9.78589 27.9439 10.4824C27.568 11.179 27.2971 11.9695 27.1313 12.854ZM33.4629 17.0995C32.6448 17.0995 32.0091 16.8894 31.5558 16.4693C31.1025 16.0381 30.8758 15.3692 30.8758 14.4626C30.8758 13.6998 31.0251 12.8595 31.3236 11.9418C31.6331 11.0242 32.1196 10.2337 32.783 9.5703C33.4574 8.89587 34.3087 8.55866 35.3369 8.55866C36.0003 8.55866 36.4702 8.70239 36.7466 8.98985C37.0341 9.27731 37.1778 9.64216 37.1778 10.0844C37.1778 10.4714 37.0949 10.7699 36.929 10.9799C36.7632 11.19 36.5531 11.295 36.2988 11.295C36.1109 11.295 35.9174 11.2287 35.7184 11.096C35.851 10.7312 35.9174 10.405 35.9174 10.1176C35.9174 9.90751 35.8787 9.74167 35.8013 9.62005C35.7239 9.49843 35.6078 9.43762 35.453 9.43762C35.1213 9.43762 34.7897 9.7085 34.458 10.2502C34.1263 10.792 33.8554 11.4498 33.6454 12.2238C33.4353 12.9977 33.3303 13.6942 33.3303 14.3134C33.3303 14.8551 33.4242 15.2255 33.6122 15.4245C33.8001 15.6125 34.1042 15.7064 34.5243 15.7064C35.1213 15.7064 35.6299 15.5682 36.0501 15.2918C36.4812 15.0154 36.9511 14.5953 37.4597 14.0314H38.0236C36.7963 16.0768 35.2761 17.0995 33.4629 17.0995ZM40.2258 7.81238C39.8609 7.81238 39.5513 7.68523 39.2971 7.43094C39.0428 7.17665 38.9156 6.86708 38.9156 6.50223C38.9156 6.13738 39.0428 5.8278 39.2971 5.57351C39.5513 5.30817 39.8609 5.17549 40.2258 5.17549C40.5906 5.17549 40.9002 5.30817 41.1545 5.57351C41.4198 5.8278 41.5525 6.13738 41.5525 6.50223C41.5525 6.86708 41.4198 7.17665 41.1545 7.43094C40.9002 7.68523 40.5906 7.81238 40.2258 7.81238ZM39.098 17.0995C38.5674 17.0995 38.1362 16.9337 37.8045 16.602C37.4839 16.2703 37.3235 15.7728 37.3235 15.1094C37.3235 14.833 37.3678 14.4737 37.4562 14.0314L38.5839 8.70792H40.9721L39.778 14.3465C39.7338 14.5124 39.7117 14.6893 39.7117 14.8772C39.7117 15.0983 39.7614 15.2587 39.8609 15.3582C39.9715 15.4466 40.1484 15.4908 40.3916 15.4908C40.7122 15.4908 41.0108 15.3582 41.2872 15.0928C41.5636 14.8164 41.7626 14.4626 41.8842 14.0314H42.5807C42.1716 15.2255 41.6465 16.0381 41.0052 16.4693C40.364 16.8894 39.7282 17.0995 39.098 17.0995ZM43.5194 17.0995C42.9887 17.0995 42.5575 16.9337 42.2258 16.602C41.9052 16.2703 41.7449 15.7728 41.7449 15.1094C41.7449 14.833 41.7891 14.4737 41.8776 14.0314L42.8726 9.37129H42.3254L42.458 8.70792H43.0053L43.5028 6.41931L45.9573 6.08762L45.3934 8.70792H46.3885L46.2558 9.37129H45.2607L44.1994 14.3465C44.1551 14.5124 44.133 14.6893 44.133 14.8772C44.133 15.0983 44.1828 15.2587 44.2823 15.3582C44.3928 15.4466 44.5697 15.4908 44.813 15.4908C45.1336 15.4908 45.4321 15.3582 45.7085 15.0928C45.9849 14.8164 46.1839 14.4626 46.3055 14.0314H47.0021C46.593 15.2255 46.0678 16.0381 45.4266 16.4693C44.7853 16.8894 44.1496 17.0995 43.5194 17.0995ZM48.7202 17.0663C47.9021 17.0663 47.2553 16.8563 46.7799 16.4361C46.3045 16.016 46.0668 15.3526 46.0668 14.446C46.0668 13.6832 46.216 12.8484 46.5145 11.9418C46.813 11.0242 47.2995 10.2337 47.9739 9.5703C48.6484 8.89587 49.5107 8.55866 50.5611 8.55866C51.8657 8.55866 52.5677 9.30495 52.6673 10.7975C52.9105 10.7422 53.1261 10.6096 53.314 10.3995C53.502 10.1784 53.6789 9.92962 53.8447 9.65322H54.3754C54.0769 10.2502 53.8116 10.7201 53.5794 11.0629C53.3472 11.3946 53.0432 11.6654 52.6673 11.8755C52.6009 12.9148 52.3853 13.8269 52.0205 14.6119C51.6667 15.3969 51.2023 16.005 50.6274 16.4361C50.0525 16.8563 49.4168 17.0663 48.7202 17.0663ZM49.3836 15.5738C49.7927 15.5738 50.1741 15.2421 50.5279 14.5787C50.8817 13.9153 51.1249 13.0972 51.2576 12.1243C50.9923 12.0248 50.8596 11.776 50.8596 11.378C50.8596 10.9468 51.0144 10.6593 51.3239 10.5156C51.3018 10.1618 51.241 9.91856 51.1415 9.78589C51.0531 9.64216 50.9038 9.5703 50.6937 9.5703C50.3289 9.5703 49.9806 9.83564 49.6489 10.3663C49.3173 10.886 49.0464 11.5217 48.8363 12.2735C48.6373 13.0143 48.5378 13.6666 48.5378 14.2304C48.5378 14.7611 48.5986 15.1205 48.7202 15.3084C48.8418 15.4853 49.063 15.5738 49.3836 15.5738Z" fill="url(#paint0_linear)"/>
<path d="M26.4529 32.0253C25.7785 32.0253 25.2809 31.8484 24.9603 31.4946C24.6508 31.1297 24.496 30.682 24.496 30.1513C24.496 29.9191 24.5236 29.6593 24.5789 29.3718C24.6342 29.0733 24.6894 28.7858 24.7447 28.5094C24.8111 28.233 24.8553 28.0561 24.8774 27.9788C24.9658 27.5918 25.0488 27.2104 25.1262 26.8344C25.2036 26.4585 25.2423 26.1545 25.2423 25.9223C25.2423 25.3585 25.0432 25.0765 24.6452 25.0765C24.3578 25.0765 24.1035 25.2203 23.8824 25.5077C23.6612 25.7841 23.4843 26.149 23.3517 26.6023L22.2239 31.9258H19.8358L21.0465 26.2042C21.0796 26.0716 21.0962 25.9334 21.0962 25.7896C21.0962 25.3032 20.9304 25.0599 20.5987 25.0599C20.2891 25.0599 20.0182 25.2037 19.7861 25.4911C19.5649 25.7675 19.388 26.1379 19.2554 26.6023L18.1276 31.9258H15.7395L17.4974 23.6337H19.8856L19.7031 24.4961C20.267 23.8659 20.9414 23.5508 21.7264 23.5508C22.6993 23.5508 23.2687 24.0262 23.4346 24.977C24.0427 24.0372 24.8111 23.5674 25.7398 23.5674C26.3036 23.5674 26.7514 23.7222 27.0831 24.0317C27.4148 24.3413 27.5806 24.8112 27.5806 25.4414C27.5806 25.762 27.5419 26.1213 27.4645 26.5193C27.3871 26.9063 27.2766 27.3817 27.1328 27.9456C27.0444 28.2883 26.9615 28.6255 26.8841 28.9572C26.8177 29.2778 26.7846 29.5321 26.7846 29.7201C26.7846 29.9412 26.8343 30.1126 26.9338 30.2342C27.0333 30.3558 27.2047 30.4166 27.4479 30.4166C27.7796 30.4166 28.045 30.3005 28.244 30.0684C28.443 29.8251 28.642 29.4547 28.841 28.9572H29.5375C29.1285 30.1734 28.6531 30.9915 28.1113 31.4117C27.5806 31.8207 27.0278 32.0253 26.4529 32.0253ZM31.6098 22.7382C31.2449 22.7382 30.9354 22.611 30.6811 22.3567C30.4268 22.1024 30.2996 21.7929 30.2996 21.428C30.2996 21.0632 30.4268 20.7536 30.6811 20.4993C30.9354 20.2339 31.2449 20.1013 31.6098 20.1013C31.9746 20.1013 32.2842 20.2339 32.5385 20.4993C32.8039 20.7536 32.9365 21.0632 32.9365 21.428C32.9365 21.7929 32.8039 22.1024 32.5385 22.3567C32.2842 22.611 31.9746 22.7382 31.6098 22.7382ZM30.4821 32.0253C29.9514 32.0253 29.5202 31.8594 29.1885 31.5278C28.8679 31.1961 28.7076 30.6986 28.7076 30.0352C28.7076 29.7588 28.7518 29.3995 28.8402 28.9572L29.968 23.6337H32.3561L31.162 29.2723C31.1178 29.4382 31.0957 29.6151 31.0957 29.803C31.0957 30.0241 31.1454 30.1844 31.2449 30.2839C31.3555 30.3724 31.5324 30.4166 31.7756 30.4166C32.0963 30.4166 32.3948 30.2839 32.6712 30.0186C32.9476 29.7422 33.1466 29.3884 33.2682 28.9572H33.9647C33.5557 30.1513 33.0305 30.9639 32.3892 31.3951C31.748 31.8152 31.1123 32.0253 30.4821 32.0253ZM35.6829 31.9921C34.8647 31.9921 34.218 31.7821 33.7425 31.3619C33.2671 30.9418 33.0294 30.2784 33.0294 29.3718C33.0294 28.6089 33.1787 27.7742 33.4772 26.8676C33.7757 25.95 34.2622 25.1594 34.9366 24.4961C35.611 23.8217 36.4734 23.4844 37.5237 23.4844C38.8283 23.4844 39.5304 24.2307 39.6299 25.7233C39.8732 25.668 40.0887 25.5354 40.2767 25.3253C40.4647 25.1042 40.6416 24.8554 40.8074 24.579H41.3381C41.0396 25.176 40.7742 25.6459 40.542 25.9887C40.3099 26.3203 40.0058 26.5912 39.6299 26.8013C39.5636 27.8405 39.348 28.7527 38.9831 29.5377C38.6293 30.3226 38.165 30.9307 37.5901 31.3619C37.0151 31.7821 36.3794 31.9921 35.6829 31.9921ZM36.3463 30.4995C36.7553 30.4995 37.1368 30.1679 37.4906 29.5045C37.8444 28.8411 38.0876 28.023 38.2203 27.05C37.9549 26.9505 37.8222 26.7018 37.8222 26.3038C37.8222 25.8726 37.977 25.5851 38.2866 25.4414C38.2645 25.0876 38.2037 24.8443 38.1042 24.7117C38.0157 24.5679 37.8665 24.4961 37.6564 24.4961C37.2915 24.4961 36.9433 24.7614 36.6116 25.2921C36.2799 25.8118 36.009 26.4475 35.799 27.1993C35.6 27.9401 35.5005 28.5924 35.5005 29.1562C35.5005 29.6869 35.5613 30.0462 35.6829 30.2342C35.8045 30.4111 36.0256 30.4995 36.3463 30.4995Z" fill="url(#paint1_linear)"/>
<path d="M42.6579 41.5109H14.1465C11.1636 41.5109 8.73912 39.9146 8.73912 37.9505V36.6558C8.73912 36.1198 9.3998 35.6848 10.2138 35.6848H46.5905C47.4045 35.6848 48.0652 36.1198 48.0652 36.6558V37.9505C48.0652 39.9146 45.6408 41.5109 42.6579 41.5109Z" fill="url(#paint2_linear)"/>
<path d="M57.3282 7.297V12.1064C59.9952 12.1064 62.1641 14.2634 62.1641 16.9158C62.1641 18.2143 61.666 19.4143 60.7302 20.3281C59.8404 21.2298 58.6338 21.7252 57.3282 21.7252H55.9668C55.4228 23.3027 54.7675 24.8441 53.9019 26.2845C53.8511 26.3711 53.7907 26.4505 53.7327 26.5346H57.3282C59.942 26.5346 62.372 25.5271 64.1492 23.7283C65.9869 21.932 67 19.5153 67 16.9158C67 11.611 62.6622 7.297 57.3282 7.297Z" fill="url(#paint3_linear)"/>
<path d="M50.995 28.1839L50.9795 28.2024L50.9668 28.2229C49.7626 30.1743 48.3242 31.9391 46.7001 33.5H8.72519C3.56232 28.5212 0.331683 21.5555 0.331683 13.8402V2.30671C0.331683 1.21676 1.21698 0.331683 2.30796 0.331683H53.0831C54.1741 0.331683 55.0594 1.21676 55.0594 2.30671V13.8402C55.0594 18.7999 53.7184 23.6713 51.1797 27.9225C51.1229 28.0171 51.0622 28.1038 50.995 28.1839Z" stroke="url(#paint4_linear)" stroke-width="0.663366"/>
<defs>
<linearGradient id="paint0_linear" x1="28.8564" y1="0" x2="28.8564" y2="20.896" gradientUnits="userSpaceOnUse">
<stop offset="0.15625" stop-color="#BF953F"/>
<stop offset="0.510417" stop-color="#B38728"/>
<stop offset="1" stop-color="#FCF6BA"/>
</linearGradient>
<linearGradient id="paint1_linear" x1="28.8564" y1="14.9258" x2="28.8564" y2="35.8218" gradientUnits="userSpaceOnUse">
<stop offset="0.15625" stop-color="#BF953F"/>
<stop offset="0.588542" stop-color="#B38728"/>
<stop offset="1" stop-color="#FCF6BA"/>
</linearGradient>
<linearGradient id="paint2_linear" x1="28.4022" y1="35.6848" x2="28.4022" y2="41.5109" gradientUnits="userSpaceOnUse">
<stop offset="0.15625" stop-color="#BF953F"/>
<stop offset="1" stop-color="#FCF6BA"/>
</linearGradient>
<linearGradient id="paint3_linear" x1="60.3663" y1="7.297" x2="60.3663" y2="26.5346" gradientUnits="userSpaceOnUse">
<stop offset="0.15625" stop-color="#BF953F"/>
<stop offset="0.510417" stop-color="#FCF6BA"/>
<stop offset="0.822917" stop-color="#B38728"/>
</linearGradient>
<linearGradient id="paint4_linear" x1="27.6955" y1="0" x2="27.6955" y2="33.8317" gradientUnits="userSpaceOnUse">
<stop offset="0.15625" stop-color="#BF953F"/>
<stop offset="0.510417" stop-color="#FCF6BA"/>
<stop offset="0.822917" stop-color="#B38728"/>
</linearGradient>
</defs>
</svg>
